# xmcd
#
# Track frame offsets: 
#        150
#        15363
#        31136
#        42938
#        57038
#        72036
#        91276
#        108837
#        118484
#        129133
#        140933
#        151265
#        172344
#
# Disc length: 2509 seconds
#
# Revision: 0
# Processed by: cddbd v1.5.2PL0 Copyright (c) Steve Scherf et al.
# Submitted via: ExactAudioCopy v0.99pb5
#
DISCID=a909cb0d
DTITLE=GREYHOUNDS - CHANGE OF PACE
DYEAR=2016
DGENRE=R&B
TTITLE0=Devil's Eyes
TTITLE1=Walls
TTITLE2=Gettin Out Alive
TTITLE3=Change of Pace
TTITLE4=Set Us Free
TTITLE5=Cuz I'm Here
TTITLE6=Before BP (The War is on For Your Mind)
TTITLE7=Late Night Slice
TTITLE8=For You
TTITLE9=Moonshadows
TTITLE10=Check The Gas
TTITLE11=B Sizzle
TTITLE12=It's So Good To Be Alive
EXTD=
EXTT0=
EXTT1=
EXTT2=
EXTT3=
EXTT4=
EXTT5=
EXTT6=
EXTT7=
EXTT8=
EXTT9=
EXTT10=
EXTT11=
EXTT12=
PLAYORDER=
